# xmcd CD database file
#
# Track frame offsets:
#	150
#	10235
#	18340
#	37289
#	53044
#	64517
#	79380
#	92533
#	109673
#	123377
#	142795
#	153325
#
# Disc length: 2214 seconds
#
# Revision: 0
# Processed by: cddbd v1.5.2PL0 Copyright (c) Steve Scherf et al.
# Submitted via: CDex 1.70beta2
#
DISCID=9108a40c
DTITLE=Jazz Melon Big Band - Smiling Moon
DYEAR=1900
DGENRE=Jazz
TTITLE0=Watermelon Man
TTITLE1=Satin Doll
TTITLE2=Big City
TTITLE3=All Of Me
TTITLE4=I Can't Give You Anything But Love
TTITLE5=Walkin' Home With Brother Bill
TTITLE6=The Pink Panther
TTITLE7=Basin Street Blues
TTITLE8=Somebody Loves Me
TTITLE9=Watch What Happens
TTITLE10=Oh, Lady Be Good
TTITLE11=Bandstand Boogie
EXTD=
EXTT0=
EXTT1=
EXTT2=
EXTT3=
EXTT4=
EXTT5=
EXTT6=
EXTT7=
EXTT8=
EXTT9=
EXTT10=
EXTT11=
PLAYORDER=
